<svg id="圖層_1" data-name="圖層 1" xmlns="http://www.w3.org/2000/svg" viewBox="0 0 36.07 36.07"><defs><style>.cls-1{fill:#fff;}</style></defs><title>icon_yt</title><path class="cls-1" d="M28.21,25l-4.7-2.55c-.19-.11-.85,0-.85.25v5c0,.22.65.36.85.25l4.9-2.42C28.61,25.4,28.4,25.11,28.21,25Z" transform="translate(-7.27 -6.72)"/><path class="cls-1" d="M34.21,6.72H16.4a9.13,9.13,0,0,0-9.13,9.13V33.66a9.13,9.13,0,0,0,9.13,9.13H34.21a9.13,9.13,0,0,0,9.13-9.13V15.85A9.13,9.13,0,0,0,34.21,6.72Zm.63,21A4.28,4.28,0,0,1,30.57,32H19.63a4.28,4.28,0,0,1-4.28-4.28V22.58a4.28,4.28,0,0,1,4.28-4.28H30.57a4.28,4.28,0,0,1,4.27,4.28Z" transform="translate(-7.27 -6.72)"/></svg>