<svg id="圖層_1" data-name="圖層 1" xmlns="http://www.w3.org/2000/svg" viewBox="0 0 36.07 36.07"><defs><style>.cls-1{fill:#fff;}</style></defs><title>icon_phone</title><path class="cls-1" d="M34.21,6.72H16.4a9.13,9.13,0,0,0-9.13,9.13V33.66a9.13,9.13,0,0,0,9.13,9.13H34.21a9.13,9.13,0,0,0,9.13-9.13V15.85A9.13,9.13,0,0,0,34.21,6.72Zm1.45,24.15A4.84,4.84,0,0,1,32,33.57a7.66,7.66,0,0,1-4-.63,16.79,16.79,0,0,1-3.45-1.64,19.43,19.43,0,0,1-5.52-5.13,21,21,0,0,1-1.28-1.94,10.33,10.33,0,0,1-1.22-2.81,6,6,0,0,1-.16-1.27,5.07,5.07,0,0,1,1.76-4,2.29,2.29,0,0,1,2.49-.37,5.39,5.39,0,0,1,1.67,2.53,4.11,4.11,0,0,1,.53,2.26,4.33,4.33,0,0,1-1.18,1.92.81.81,0,0,0-.1,1.09,13,13,0,0,0,6.5,5.56.7.7,0,0,0,.92-.2c.49-.59,1-1.76,1.71-2.07a3.39,3.39,0,0,1,2.88.65c.77.46,2,1,2.26,2A2.35,2.35,0,0,1,35.66,30.87Z" transform="translate(-7.27 -6.72)"/></svg>