<svg id="圖層_1" data-name="圖層 1" xmlns="http://www.w3.org/2000/svg" viewBox="0 0 36.07 36.07"><defs><style>.cls-1{fill:#fff;}</style></defs><title>icon_fb</title><path class="cls-1" d="M34.21,6.72H16.4a9.13,9.13,0,0,0-9.13,9.13V33.66a9.13,9.13,0,0,0,9.13,9.13h6.12V29.91H18V24.76h4.52V20.83c0-4.46,2.66-6.93,6.73-6.93a27.27,27.27,0,0,1,4,.35v4.38H31a2.58,2.58,0,0,0-2.9,2.79v3.34H33l-.79,5.15H28.09V42.79h6.12a9.13,9.13,0,0,0,9.13-9.13V15.85A9.13,9.13,0,0,0,34.21,6.72Z" transform="translate(-7.27 -6.72)"/></svg>